<?xml version="1.0" encoding="UTF-8"?>
<svg width="300px" height="301px" viewBox="0 0 300 301" version="1.1" xmlns="http://www.w3.org/2000/svg" xmlns:xlink="http://www.w3.org/1999/xlink">
    <!-- Generator: Sketch 51.3 (57544) - http://www.bohemiancoding.com/sketch -->
    <title>gn_logo</title>
    <desc>Created with Sketch.</desc>
    <defs>
        <radialGradient cx="52.0472671%" cy="53.0601016%" fx="52.0472671%" fy="53.0601016%" r="69.8122221%" gradientTransform="translate(0.520473,0.530601),scale(0.859894,1.000000),translate(-0.520473,-0.530601)" id="radialGradient-1">
            <stop stop-color="#CDCD08" offset="0%"></stop>
            <stop stop-color="#CDCD08" offset="58.74%"></stop>
            <stop stop-color="#998675" offset="100%"></stop>
        </radialGradient>
        <radialGradient cx="34.2743586%" cy="51.5248581%" fx="34.2743586%" fy="51.5248581%" r="34.5721994%" gradientTransform="translate(0.342744,0.515249),scale(0.982537,1.000000),translate(-0.342744,-0.515249)" id="radialGradient-2">
            <stop stop-color="#0D71B9" offset="0%"></stop>
            <stop stop-color="#1C3761" offset="100%"></stop>
        </radialGradient>
    </defs>
    <g id="Page-1" stroke="none" stroke-width="1" fill="none" fill-rule="evenodd">
        <g id="GNlogo" transform="translate(-157.000000, -1.000000)" fill-rule="nonzero">
            <g id="Group" transform="translate(157.000000, 0.105590)">
                <g id="Logo" transform="translate(0.000000, 3.000000)">
                    <path d="M152.745652,251.464286 C83.9068323,251.464286 27.2021739,240.913975 19.742236,227.526708 C19.1888199,226.53913 18.9083851,225.535714 18.9083851,224.518323 C18.9083851,215.291925 42.2021739,212.310559 77.6534161,211.369565 C99.7108696,214.113354 125.36646,215.536957 152.745652,215.536957 C219.988509,215.536957 274.503727,227.53882 274.503727,242.342236 C274.503727,243.567391 274.131056,244.687267 273.408075,245.709317 C268.418012,252.758385 246.790994,255.18913 216.298137,256.014596 C199.39472,253.184161 177.135093,251.464286 152.745652,251.464286 Z M79.9192547,84.4490683 C93.5254658,82.7664596 108.49472,80.8537267 124.377019,80.8537267 L124.378882,80.8537267 C125.52205,69.3931677 126.840373,61.9145963 128.396273,53.5546584 C136.228882,53.9310559 143.701863,54.1462733 152.421429,54.1462733 L152.421429,80.8537267 L152.755901,80.8537267 C179.253727,80.8537267 204.081988,82.0947205 225.545963,84.75 C255.284161,79.8661491 274.519565,71.9208075 274.519565,63.1229814 C274.519565,61.4813665 273.842236,59.8034161 272.562112,58.2503106 C262.275466,45.7388199 212.543478,36.2161491 152.745652,36.2161491 C93.4332298,36.2161491 44.0236025,45.536646 33.1909938,57.8962733 C31.7459627,59.5518634 30.9857143,61.2381988 30.9857143,62.9841615 C30.9875776,71.7782609 50.2136646,79.5624224 79.9192547,84.4490683 Z" id="Shape" fill="url(#radialGradient-1)"></path>
                    <path d="M272.547205,58.1869565 C272.738199,58.4329193 272.924534,58.6835404 273.115528,58.9341615 C272.941304,58.6779503 272.758696,58.4291925 272.556522,58.1795031 L272.547205,58.1869565 Z" id="Shape" stroke="#35679A" stroke-width="0.2674" fill="#1C3761"></path>
                    <path d="M212.641304,294.371739 L212.648758,294.371739 C211.621118,289.141304 184.624845,288.163043 152.745652,288.163043 C107.719565,288.163043 69.957764,281.73354 59.7475155,273.835714 L59.7624224,273.811491 C43.4925466,261.290683 29.876087,245.535093 19.7431677,227.549068 C27.2031056,240.93913 83.907764,251.501553 152.746584,251.501553 C177.136025,251.501553 199.39472,253.253106 216.299068,256.084472 C236.027329,259.390062 248.462422,264.279503 248.462422,269.645963 C248.462422,270.981056 247.693789,272.418634 246.235714,273.668012 L246.233851,274.000621 C235.996584,281.941304 224.719565,287.895652 212.641304,294.371739 Z M274.503727,242.340373 C274.503727,243.565528 274.131056,244.685404 273.408075,245.707453 C284.601242,231.096894 293.863043,214.198137 299.207143,196.107764 C299.464286,195.332609 299.591925,194.480124 299.591925,193.693789 C299.591925,176.150311 233.848137,161.931056 152.745652,161.931056 C69.4229814,161.931056 1.80838509,147.961491 1.80838509,130.421739 L1.79720497,130.077019 C0.69689441,137.475466 0.126708075,145.048137 0.126708075,152.751242 C0.126708075,163.990062 1.34161491,174.948447 3.64658385,185.495031 C6.00745342,196.595031 35.2006211,206.095342 77.6534161,211.368634 C99.7108696,214.112422 125.36646,215.536025 152.745652,215.536025 C219.988509,215.536025 274.503727,227.537888 274.503727,242.340373 Z M183.136025,88.9462733 C184.804658,105.557143 185.843478,123.795652 186.11646,143.003106 C251.136335,139.733851 299.564907,127.125466 299.564907,112.063043 C299.564907,111.274845 299.465217,110.480124 299.207143,109.709627 C293.730745,91.05 284.782919,73.8791925 273.115528,58.9350932 C274.025776,60.2552795 274.502795,61.6080745 274.502795,62.9822981 C274.503727,75.4770186 235.679814,85.9742236 183.136025,88.9462733 Z M152.67205,54.1462733 C144.200311,54.1462733 136.35559,53.9515528 128.525776,53.5779503 C126.538509,64.202795 124.82795,76.1189441 123.537578,89.0086957 C70.4180124,86.1270186 31.0071429,75.5673913 31.0071429,62.9804348 C31.0071429,61.6015528 31.4785714,60.2431677 32.3916149,58.9164596 C20.6487578,73.9555901 11.5462733,91.2186335 6.07919255,110.013354 C5.88074534,110.692547 5.86118012,111.374534 5.86118012,112.06118 C5.86118012,129.601863 72.6959627,143.82205 152.67205,143.82205 L152.67205,54.1462733 Z M209.906832,14.6962733 C209.906832,11.9813665 205.993789,9.46397516 199.340683,7.40590062 L199.348137,7.38167702 C184.654658,2.67950311 168.998758,0.136024845 152.745652,0.136024845 C136.015528,0.136024845 119.920807,2.8257764 104.851863,7.8 L104.859317,7.82049689 C98.9953416,9.7984472 95.5863354,12.1611801 95.5863354,14.6962733 C95.5863354,21.6447205 121.174845,27.2822981 152.746584,27.2822981 C184.311801,27.2822981 209.906832,21.6437888 209.906832,14.6962733 Z" id="Shape" fill="url(#radialGradient-2)"></path>
                </g>
            </g>
        </g>
    </g>
</svg>