<?xml version="1.0" encoding="UTF-8"?>
<svg width="300px" height="301px" viewBox="0 0 300 301" version="1.1" xmlns="http://www.w3.org/2000/svg" xmlns:xlink="http://www.w3.org/1999/xlink">
    <!-- Generator: Sketch 51.3 (57544) - http://www.bohemiancoding.com/sketch -->
    <title>gn_logo</title>
    <desc>Created with Sketch.</desc>
    <g id="Page-1" stroke="none" stroke-width="1" fill="none" fill-rule="evenodd">
        <g id="GNlogo" transform="translate(-157.000000, -1.000000)" fill-rule="nonzero">
            <g id="Group" transform="translate(157.000000, 0.105590)">
                <g id="Logo" transform="translate(0.000000, 3.000000)">
                    <path d="M212.641304,294.371739 L212.648758,294.371739 C211.621118,289.141304 184.624845,288.163043 152.745652,288.163043 C107.719565,288.163043 69.957764,281.73354 59.7475155,273.835714 L59.7624224,273.811491 C43.4925466,261.290683 29.876087,245.535093 19.7431677,227.549068 C27.2031056,240.93913 83.907764,251.501553 152.746584,251.501553 C177.136025,251.501553 199.39472,253.253106 216.299068,256.084472 C236.027329,259.390062 248.462422,264.279503 248.462422,269.645963 C248.462422,270.981056 247.693789,272.418634 246.235714,273.668012 L246.233851,274.000621 C235.996584,281.941304 224.719565,287.895652 212.641304,294.371739 Z M274.503727,242.340373 C274.503727,243.565528 274.131056,244.685404 273.408075,245.707453 C284.601242,231.096894 293.863043,214.198137 299.207143,196.107764 C299.464286,195.332609 299.591925,194.480124 299.591925,193.693789 C299.591925,176.150311 233.848137,161.931056 152.745652,161.931056 C69.4229814,161.931056 1.80838509,147.961491 1.80838509,130.421739 L1.79720497,130.077019 C0.69689441,137.475466 0.126708075,145.048137 0.126708075,152.751242 C0.126708075,163.990062 1.34161491,174.948447 3.64658385,185.495031 C6.00745342,196.595031 35.2006211,206.095342 77.6534161,211.368634 C99.7108696,214.112422 125.36646,215.536025 152.745652,215.536025 C219.988509,215.536025 274.503727,227.537888 274.503727,242.340373 Z M183.136025,88.9462733 C184.804658,105.557143 185.843478,123.795652 186.11646,143.003106 C251.136335,139.733851 299.564907,127.125466 299.564907,112.063043 C299.564907,111.274845 299.465217,110.480124 299.207143,109.709627 C293.730745,91.05 284.782919,73.8791925 273.115528,58.9350932 C274.025776,60.2552795 274.502795,61.6080745 274.502795,62.9822981 C274.503727,75.4770186 235.679814,85.9742236 183.136025,88.9462733 Z M152.67205,54.1462733 C144.200311,54.1462733 136.35559,53.9515528 128.525776,53.5779503 C126.538509,64.202795 124.82795,76.1189441 123.537578,89.0086957 C70.4180124,86.1270186 31.0071429,75.5673913 31.0071429,62.9804348 C31.0071429,61.6015528 31.4785714,60.2431677 32.3916149,58.9164596 C20.6487578,73.9555901 11.5462733,91.2186335 6.07919255,110.013354 C5.88074534,110.692547 5.86118012,111.374534 5.86118012,112.06118 C5.86118012,129.601863 72.6959627,143.82205 152.67205,143.82205 L152.67205,54.1462733 Z M209.906832,14.6962733 C209.906832,11.9813665 205.993789,9.46397516 199.340683,7.40590062 L199.348137,7.38167702 C184.654658,2.67950311 168.998758,0.136024845 152.745652,0.136024845 C136.015528,0.136024845 119.920807,2.8257764 104.851863,7.8 L104.859317,7.82049689 C98.9953416,9.7984472 95.5863354,12.1611801 95.5863354,14.6962733 C95.5863354,21.6447205 121.174845,27.2822981 152.746584,27.2822981 C184.311801,27.2822981 209.906832,21.6437888 209.906832,14.6962733 Z" id="Shape"  fill="#BABABA"></path>
                </g>
            </g>
        </g>
    </g>
</svg>
