<svg xmlns="http://www.w3.org/2000/svg" width="70.216" height="69.007" viewBox="0 0 70.216 69.007">
  <defs>
    <radialGradient id="radialGradient-1" cx="52.049%" cy="53.061%" r="69.814%" fx="52.049%" fy="53.061%" gradientTransform="matrix(.8598 0 0 1 .073 0)">
      <stop offset="0%" stop-color="#CDCD08"/>
      <stop offset="58.74%" stop-color="#CDCD08"/>
      <stop offset="100%" stop-color="#998675"/>
    </radialGradient>
    <radialGradient id="radialGradient-2" cx="34.275%" cy="51.526%" r="34.566%" fx="34.275%" fy="51.526%" gradientTransform="matrix(.9828 0 0 1 .006 0)">
      <stop offset="0%" stop-color="#0D71B9"/>
      <stop offset="100%" stop-color="#1C3761"/>
    </radialGradient>
  </defs>
  <g fill="none" fill-rule="evenodd" class="page-1">
    <g fill-rule="nonzero" class="page-1__geonetwork-logo">
      <g class="page-1__geonetwork-logo__shape">
        <path fill="url(#radialGradient-1)" d="M35.784 58.928c-16.14 0-29.435-2.474-31.184-5.613a1.424 1.424 0 0 1-.196-.705c0-2.164 5.462-2.863 13.773-3.084 5.172.644 11.188.979 17.606.979 15.767 0 28.549 2.813 28.549 6.284 0 .288-.087.55-.257.789-1.171 1.652-6.24 2.224-13.391 2.418-3.962-.665-9.181-1.068-14.9-1.068zM18.71 19.805c3.19-.395 6.7-.806 10.423-.806h.001c.269-2.942.686-4.478 1.051-6.438 1.836.088 3.602.102 5.741.102v6.336h-.139c6.213 0 12.034.252 17.067.876 6.973-1.146 11.482-3.025 11.482-5.089 0-.386-.158-.787-.459-1.152-2.412-2.934-14.072-5.17-28.092-5.17-13.907 0-25.493 2.183-28.032 5.08-.339.388-.518.802-.518 1.211.001 2.063 4.509 3.904 11.475 5.05z"/>
        <path fill="url(#radialGradient-2)" d="M49.829 69.007c-.24-1.337-6.57-1.465-14.045-1.465-10.556 0-19.41-1.512-21.804-3.363l.003-.009A35.976 35.976 0 0 1 4.6 53.321c1.749 3.139 15.044 5.616 31.184 5.616 5.719 0 10.938.409 14.901 1.074 4.626.774 7.542 1.921 7.542 3.179 0 .312-.18.65-.521.943l-.002.088c-2.399 1.861-5.043 3.181-7.875 4.786zm14.504-12.218c0 .288-.087.55-.257.789 2.624-3.426 4.796-7.387 6.05-11.63.06-.181.09-.381.09-.566 0-4.112-15.415-7.446-34.432-7.446-19.535 0-35.389-3.275-35.389-7.387l-.003-.082A36.115 36.115 0 0 0 0 35.783c0 2.635.285 5.204.825 7.677.554 2.604 7.398 4.83 17.352 6.066 5.172.644 11.188.979 17.606.979 15.768 0 28.55 2.813 28.55 6.284zM42.911 20.823c.391 3.895.634 8.171.698 12.674 15.245-.767 26.6-3.723 26.6-7.254 0-.186-.023-.37-.083-.552a35.682 35.682 0 0 0-6.119-11.905c.214.31.326.628.326.95 0 2.929-9.103 5.391-21.422 6.087zm-6.985-8.159c-2.14 0-3.904-.045-5.74-.134a98.252 98.252 0 0 0-1.209 8.308c-12.455-.676-21.715-3.151-21.715-6.102 0-.324.1-.645.314-.955-2.753 3.527-4.893 7.575-6.174 11.98-.047.16.025.32.025.481 0 4.112 15.512 7.446 34.498 7.446V12.664h.001zm13.261-9.251c0-.635-.917-1.226-2.477-1.709l.002-.007A35.835 35.835 0 0 0 35.784 0c-3.921 0-7.696.631-11.229 1.797l.001.006c-1.375.463-2.174 1.016-2.174 1.61 0 1.631 6 2.952 13.401 2.952 7.404 0 13.404-1.321 13.404-2.952z"/>
      </g>
    </g>
  </g>
</svg>
